<svg width="256" height="256" viewBox="0 0 256 256" xmlns="http://www.w3.org/2000/svg">
  <rect width="256" height="256" fill="#ffffff" />
  <rect x="16" y="16" width="64" height="64" fill="#111111" />
  <rect x="28" y="28" width="40" height="40" fill="#ffffff" />
  <rect x="176" y="16" width="64" height="64" fill="#111111" />
  <rect x="188" y="28" width="40" height="40" fill="#ffffff" />
  <rect x="16" y="176" width="64" height="64" fill="#111111" />
  <rect x="28" y="188" width="40" height="40" fill="#ffffff" />
  <rect x="104" y="104" width="48" height="48" fill="#111111" />
  <rect x="114" y="114" width="28" height="28" fill="#ffffff" />
  <rect x="92" y="16" width="16" height="16" fill="#111111" />
  <rect x="116" y="16" width="16" height="16" fill="#111111" />
  <rect x="140" y="16" width="16" height="16" fill="#111111" />
  <rect x="92" y="40" width="16" height="16" fill="#111111" />
  <rect x="140" y="40" width="16" height="16" fill="#111111" />
  <rect x="92" y="64" width="16" height="16" fill="#111111" />
  <rect x="116" y="64" width="16" height="16" fill="#111111" />
  <rect x="140" y="64" width="16" height="16" fill="#111111" />
  <rect x="92" y="88" width="16" height="16" fill="#111111" />
  <rect x="140" y="88" width="16" height="16" fill="#111111" />
  <rect x="16" y="92" width="16" height="16" fill="#111111" />
  <rect x="40" y="92" width="16" height="16" fill="#111111" />
  <rect x="64" y="92" width="16" height="16" fill="#111111" />
  <rect x="176" y="92" width="16" height="16" fill="#111111" />
  <rect x="200" y="92" width="16" height="16" fill="#111111" />
  <rect x="224" y="92" width="16" height="16" fill="#111111" />
  <rect x="16" y="116" width="16" height="16" fill="#111111" />
  <rect x="40" y="116" width="16" height="16" fill="#111111" />
  <rect x="64" y="116" width="16" height="16" fill="#111111" />
  <rect x="176" y="116" width="16" height="16" fill="#111111" />
  <rect x="200" y="116" width="16" height="16" fill="#111111" />
  <rect x="224" y="116" width="16" height="16" fill="#111111" />
  <rect x="16" y="140" width="16" height="16" fill="#111111" />
  <rect x="40" y="140" width="16" height="16" fill="#111111" />
  <rect x="64" y="140" width="16" height="16" fill="#111111" />
  <rect x="176" y="140" width="16" height="16" fill="#111111" />
  <rect x="200" y="140" width="16" height="16" fill="#111111" />
  <rect x="224" y="140" width="16" height="16" fill="#111111" />
  <rect x="92" y="168" width="16" height="16" fill="#111111" />
  <rect x="116" y="168" width="16" height="16" fill="#111111" />
  <rect x="140" y="168" width="16" height="16" fill="#111111" />
  <rect x="92" y="192" width="16" height="16" fill="#111111" />
  <rect x="140" y="192" width="16" height="16" fill="#111111" />
  <rect x="92" y="216" width="16" height="16" fill="#111111" />
  <rect x="116" y="216" width="16" height="16" fill="#111111" />
  <rect x="140" y="216" width="16" height="16" fill="#111111" />
</svg>
